<svg xmlns="http://www.w3.org/2000/svg" viewBox="0 0 64 64"><title>Bò</title><defs><pattern id="grain" width="7" height="9" patternUnits="userSpaceOnUse"><path d="M1 2h2m2 4h1" stroke="#fff3d0" stroke-width=".65" opacity=".3"/></pattern></defs><g fill="none" stroke="#4f493b" stroke-width="2.1" stroke-linecap="round" stroke-linejoin="round"><path fill="#c3a477" d="M11 20h42l-4 26-17 11-17-11z"/><path fill="#e8d5a3" d="M13 24Q0 19 5 5l13 13m33 6Q64 19 59 5L46 18"/><path fill="#718e85" d="M17 21h12l-3 20-11-3z"/><path fill="#d4bc91" d="M17 42h30v10l-15 8-15-8z"/><path d="M22 47v2m20-2v2m-20-20v3m20-3v3"/></g><path fill="url(#grain)" d="M5 5h54v54H5z" opacity=".36"/></svg>