<svg xmlns="http://www.w3.org/2000/svg" viewBox="0 0 64 64"><title>Linh kiện</title><defs><pattern id="grain" width="7" height="9" patternUnits="userSpaceOnUse"><path d="M1 2h2m2 4h1" stroke="#fff3d0" stroke-width=".65" opacity=".3"/></pattern></defs><g fill="none" stroke="#4f493b" stroke-width="2.1" stroke-linecap="round" stroke-linejoin="round"><path fill="#729996" d="m12 14 24-8 17 12v29L30 59 12 45Z"/><path fill="#436975" d="m12 14 18 14 23-10v29L30 59V28Z"/><path fill="#e1c883" d="m23 26 15-6 6 5-15 7Z"/><path stroke="#e1c883" d="M20 36v8m7-4v9m10-9v8m7-12v8M16 21l5 4m20-11 5 3"/></g><path fill="url(#grain)" d="M5 5h54v54H5z" opacity=".36"/></svg>