<svg xmlns="http://www.w3.org/2000/svg" viewBox="0 0 64 64"><title>Bản đồ</title><defs><pattern id="grain" width="7" height="9" patternUnits="userSpaceOnUse"><path d="M1 2h2m2 4h1" stroke="#fff3d0" stroke-width=".65" opacity=".3"/></pattern></defs><g fill="none" stroke="#4f493b" stroke-width="2.1" stroke-linecap="round" stroke-linejoin="round"><path fill="#e8d4a5" d="M6 15l17-5 18 6 17-5v39l-17 5-18-6-17 5z"/><path d="M23 10v39m18-33v39"/><path fill="#6fa697" d="M10 33l9-11 4 6 10-3 8 10 12-7v12l-12 6-13-10-9 8-9-3z"/><path d="M44 22l7 5m0-5-7 5"/></g><path fill="url(#grain)" d="M5 5h54v54H5z" opacity=".36"/></svg>