<svg xmlns="http://www.w3.org/2000/svg" width="64" height="64" viewBox="0 0 64 64"><ellipse cx="32" cy="54" rx="27" ry="8" fill="#263b32" opacity=".2"/><path d="m7 49 8-24 15-15 15 9 13 27-24 15Z" fill="#90999b" stroke="#586568" stroke-width="1.5"/><path d="m15 25 15-15 2 18-13 9Zm17 3 13-9 13 27-17-7" fill="#c8ccbe"/><path d="M18 51V35l14-8 13 10v17" fill="#333b3b" stroke="#735335" stroke-width="5"/><path d="m15 54 16-10 20 12m-22-8 19 11m-26-7 20 11" stroke="#b0a895" stroke-width="2"/><path d="M46 43h11v10H46z" fill="#aa7850" stroke="#5b4c3e"/><circle cx="48" cy="54" r="3" fill="#3d4644"/><circle cx="56" cy="51" r="3" fill="#3d4644"/></svg>