<svg xmlns="http://www.w3.org/2000/svg" width="64" height="64" viewBox="0 0 64 64"><ellipse cx="32" cy="54" rx="27" ry="8" fill="#263b32" opacity=".2"/><path d="m4 51 28-16 28 16-28 14Z" fill="#94ad91"/><path d="M23 51V19l9-5 9 5v32l-9 6Z" fill="#d9dfbd" stroke="#6d8166" stroke-width="2"/><path d="m14 43 18-10 18 10-18 9Z" fill="#7fae91" stroke="#5c7c62" stroke-width="2"/><path d="m18 28 14-8 14 8-14 8Z" fill="#9ac5a3" stroke="#5f8369" stroke-width="2"/><path d="m20 16 12-7 12 7-12 7Z" fill="#bad8b1" stroke="#6e8c6a"/><path d="m28 10 4-10 6 10-6 6Z" fill="#77c6b0" stroke="#568471"/><path d="M32 36v16" stroke="#8bba9c" stroke-width="3"/><path d="m30 40 3-8 4 8-4 7Z" fill="#efe1aa"/><path d="M9 51V39m46 12V39" stroke="#a5bc8e" stroke-width="3"/><circle cx="9" cy="37" r="3" fill="#c9deb0"/><circle cx="55" cy="37" r="3" fill="#c9deb0"/><path d="m5 57 10-5 7 3-11 6Z" fill="#c98d47" stroke="#785535"/><path d="m11 53 2 4m3-6 2 4" stroke="#f2cc82"/></svg>