<svg xmlns="http://www.w3.org/2000/svg" width="64" height="64" viewBox="0 0 64 64"><ellipse cx="32" cy="54" rx="27" ry="8" fill="#263b32" opacity=".2"/><path d="m3 49 29-16 29 16-29 15Z" fill="#93aa8b" stroke="#63795e"/><path d="m9 48 12-7 11 7-12 7Z" fill="#d9d9b6"/><path d="M12 45V22l7-4 7 4v24l-7 4Z" fill="#bfceb1" stroke="#677f67" stroke-width="2"/><path d="M39 44V21l7-4 7 4v24l-7 4Z" fill="#b2c9a8" stroke="#617e65" stroke-width="2"/><path d="M19 24q14-25 27 0" fill="none" stroke="#a4bea1" stroke-width="7"/><path d="M19 24q14-25 27 0" fill="none" stroke="#e8dfba" stroke-width="2"/><path d="m27 43 3-19 7-4 4 15-5 16Z" fill="#76bdac" stroke="#567d6d" stroke-width="2"/><path d="m30 24 5 13 2-17m-2 17 1 14" stroke="#daefc0"/><path d="m15 56 17-9 18 9-18 6Z" fill="#aac3a3"/><path d="m23 51 9 5 9-5" fill="none" stroke="#dcdfab" stroke-width="2"/></svg>