<svg xmlns="http://www.w3.org/2000/svg" width="64" height="64" viewBox="0 0 64 64"><ellipse cx="32" cy="54" rx="27" ry="8" fill="#263b32" opacity=".2"/><path d="M15 34v19l17 7 17-8V34L32 23Z" fill="#e5d7bb" stroke="#5c5145" stroke-width="1.5"/><path d="M32 37v23l17-8V34Z" fill="#806347" opacity=".35"/><path d="M17 42h29M17 47h29M23 37v16M35 37v16" stroke="#b1a08c" stroke-width="1" opacity=".6"/><path d="M10 34 31 17 54 34 34 43Z" fill="#b95740" stroke="#644c3c" stroke-width="1.7"/><path d="m31 17 3 26 20-9Z" fill="#583f34" opacity=".28"/><path d="m16 33 16-12m-9 16 10-13m8 10 5-4" stroke="#f6d695" opacity=".5"/><path d="M25 57V45l8 3v12" fill="#584a3c"/><path d="M39 43v7l5-2v-7Z" fill="#8cc9ca" stroke="#5b4938"/><path d="M8 45v10l7 3V47ZM46 50v9l9-4v-9Z" fill="#bf874a" stroke="#745139"/><path d="m8 48 7 3m32 2 7-3" stroke="#f2cb77"/><path d="M23 31h15v5H23z" fill="#e3c470"/><path d="m26 33 3-4 3 4 3-4" fill="none" stroke="#7d673e"/></svg>